<?xml version="1.0" encoding="UTF-8" standalone="no"?>
<!-- Created with Inkscape (http://www.inkscape.org/) -->

<svg
   width="39.158283mm"
   height="39.158283mm"
   viewBox="0 0 39.158283 39.158283"
   version="1.1"
   id="svg5"
   xmlns="http://www.w3.org/2000/svg"
   xmlns:svg="http://www.w3.org/2000/svg">
  <defs
     id="defs2" />
  <g
     id="layer1"
     transform="translate(-105.216,-148.671)">
    <g
       transform="matrix(0.264583,0,0,0.264583,105.216,148.671)"
       id="g144">
      <rect
         x="0"
         y="0"
         width="148"
         height="148"
         style="fill:#ffffff;stroke:none"
         id="rect138" />
      <g
         style="fill:#000000;stroke:none"
         id="g142">
        <path
           d="M 111.6,132 H 88.4 c -0.220914,0 -0.4,-0.17909 -0.4,-0.4 v -3.2 c 0,-0.22091 0.179086,-0.4 0.4,-0.4 h 15.2 c 0.22091,0 0.4,-0.17909 0.4,-0.4 v -3.2 c 0,-0.22091 0.17909,-0.4 0.4,-0.4 h 3.6 v 3.6 c 0,0.22091 0.17909,0.4 0.4,0.4 h 3.2 c 0.22091,0 0.4,0.17909 0.4,0.4 v 3.2 c 0,0.22091 -0.17909,0.4 -0.4,0.4 z m -40,0 H 48.4 c -0.220914,0 -0.4,-0.17909 -0.4,-0.4 v -7.2 c 0,-0.22091 0.179086,-0.4 0.4,-0.4 h 3.2 c 0.220914,0 0.4,0.17909 0.4,0.4 v 3.2 c 0,0.22091 0.179086,0.4 0.4,0.4 H 72 v 3.6 c 0,0.22091 -0.179086,0.4 -0.4,0.4 z m -28,0 H 16.4 c -0.220914,0 -0.4,-0.17909 -0.4,-0.4 v -27.2 c 0,-0.22091 0.179086,-0.4 0.4,-0.4 h 27.2 c 0.220914,0 0.4,0.17909 0.4,0.4 v 27.2 c 0,0.22091 -0.179086,0.4 -0.4,0.4 z m 88,-4 h -3.2 c -0.22091,0 -0.4,-0.17909 -0.4,-0.4 v -3.2 c 0,-0.22091 -0.17909,-0.4 -0.4,-0.4 h -3.2 c -0.22091,0 -0.4,0.17909 -0.4,0.4 v 3.2 c 0,0.22091 -0.17909,0.4 -0.4,0.4 h -7.2 c -0.22091,0 -0.4,-0.17909 -0.4,-0.4 V 124 h 3.6 c 0.22091,0 0.4,-0.17909 0.4,-0.4 v -3.2 c 0,-0.22091 0.17909,-0.4 0.4,-0.4 h 3.2 c 0.22091,0 0.4,-0.17909 0.4,-0.4 v -11.2 c 0,-0.22091 0.17909,-0.4 0.4,-0.4 h 3.2 c 0.22091,0 0.4,0.17909 0.4,0.4 v 3.2 c 0,0.22091 0.17909,0.4 0.4,0.4 h 3.2 c 0.22091,0 0.4,0.17909 0.4,0.4 v 15.2 c 0,0.22091 -0.17909,0.4 -0.4,0.4 z m -52,0 H 72 v -11.6 c 0,-0.22091 0.179086,-0.4 0.4,-0.4 h 3.2 c 0.220914,0 0.4,-0.17909 0.4,-0.4 V 112 h 4 v 3.6 c 0,0.22091 0.179086,0.4 0.4,0.4 H 92 v 4 H 80.4 c -0.220914,0 -0.4,0.17909 -0.4,0.4 v 7.2 c 0,0.22091 -0.179086,0.4 -0.4,0.4 z M 40,127.6 V 108.4 C 40,108.17909 39.820914,108 39.6,108 H 20.4 c -0.220914,0 -0.4,0.17909 -0.4,0.4 v 19.2 c 0,0.22091 0.179086,0.4 0.4,0.4 h 19.2 c 0.220914,0 0.4,-0.17909 0.4,-0.4 z M 115.6,124 H 108 v -3.6 c 0,-0.22091 0.17909,-0.4 0.4,-0.4 h 7.2 c 0.22091,0 0.4,0.17909 0.4,0.4 v 3.6 z m -20,0 H 92.4 C 92.179086,124 92,123.82091 92,123.6 V 120 h 4 v 3.6 c 0,0.22091 -0.179086,0.4 -0.4,0.4 z m -28,0 H 64.4 C 64.179086,124 64,123.82091 64,123.6 V 120 h 3.6 c 0.220914,0 0.4,0.17909 0.4,0.4 v 3.2 c 0,0.22091 -0.179086,0.4 -0.4,0.4 z m -32,0 H 24.4 c -0.220914,0 -0.4,-0.17909 -0.4,-0.4 v -11.2 c 0,-0.22091 0.179086,-0.4 0.4,-0.4 h 11.2 c 0.220914,0 0.4,0.17909 0.4,0.4 v 11.2 c 0,0.22091 -0.179086,0.4 -0.4,0.4 z m 68,-4 H 96 v -3.6 C 96,116.17909 95.820914,116 95.6,116 H 92 v -3.6 c 0,-0.22091 0.179086,-0.4 0.4,-0.4 h 3.2 c 0.220914,0 0.4,-0.17909 0.4,-0.4 v -3.2 C 96,108.17909 95.820914,108 95.6,108 H 92.4 C 92.179086,108 92,107.82091 92,107.6 V 104 h 3.6 c 0.220914,0 0.4,-0.17909 0.4,-0.4 V 96.4 C 96,96.179086 96.179086,96 96.4,96 h 7.2 c 0.22091,0 0.4,-0.179086 0.4,-0.4 V 92.4 C 104,92.179086 103.82091,92 103.6,92 H 88.4 C 88.179086,92 88,91.820914 88,91.6 V 88.4 C 88,88.179086 87.820914,88 87.6,88 H 84 V 84.4 C 84,84.179086 84.179086,84 84.4,84 H 95.6 C 95.820914,84 96,83.820914 96,83.6 V 80.4 C 96,80.179086 95.820914,80 95.6,80 H 88.4 C 88.179086,80 88,79.820914 88,79.6 V 76 h 3.6 C 91.820914,76 92,75.820914 92,75.6 V 72 h 3.6 c 0.220914,0 0.4,0.179086 0.4,0.4 v 3.2 c 0,0.220914 0.179086,0.4 0.4,0.4 h 7.2 c 0.22091,0 0.4,-0.179086 0.4,-0.4 V 64.4 C 104,64.179086 103.82091,64 103.6,64 H 100 v -3.6 c 0,-0.220914 0.17909,-0.4 0.4,-0.4 h 7.2 c 0.22091,0 0.4,0.179086 0.4,0.4 v 3.2 c 0,0.220914 0.17909,0.4 0.4,0.4 h 3.6 v 3.6 c 0,0.220914 0.17909,0.4 0.4,0.4 h 15.2 c 0.22091,0 0.4,-0.179086 0.4,-0.4 v -7.2 c 0,-0.220914 0.17909,-0.4 0.4,-0.4 h 3.2 c 0.22091,0 0.4,0.179086 0.4,0.4 v 19.2 c 0,0.220914 -0.17909,0.4 -0.4,0.4 h -3.2 c -0.22091,0 -0.4,-0.179086 -0.4,-0.4 v -7.2 c 0,-0.220914 -0.17909,-0.4 -0.4,-0.4 h -3.2 c -0.22091,0 -0.4,0.179086 -0.4,0.4 v 7.2 c 0,0.220914 -0.17909,0.4 -0.4,0.4 H 120 v -7.6 c 0,-0.220914 -0.17909,-0.4 -0.4,-0.4 h -11.2 c -0.22091,0 -0.4,0.179086 -0.4,0.4 v 3.2 c 0,0.220914 0.17909,0.4 0.4,0.4 h 7.2 c 0.22091,0 0.4,0.179086 0.4,0.4 V 80 h -15.6 c -0.22091,0 -0.4,0.179086 -0.4,0.4 v 3.2 c 0,0.220914 0.17909,0.4 0.4,0.4 h 3.2 c 0.22091,0 0.4,0.179086 0.4,0.4 v 3.2 c 0,0.220914 0.17909,0.4 0.4,0.4 h 3.2 c 0.22091,0 0.4,0.179086 0.4,0.4 v 7.2 c 0,0.220914 0.17909,0.4 0.4,0.4 h 3.2 c 0.22091,0 0.4,-0.179086 0.4,-0.4 V 84.4 c 0,-0.220914 0.17909,-0.4 0.4,-0.4 h 3.6 v 3.6 c 0,0.220914 0.17909,0.4 0.4,0.4 h 3.6 v 3.6 c 0,0.220914 0.17909,0.4 0.4,0.4 h 3.2 c 0.22091,0 0.4,0.179086 0.4,0.4 v 3.2 c 0,0.220914 0.17909,0.4 0.4,0.4 h 3.2 c 0.22091,0 0.4,0.179086 0.4,0.4 v 3.2 c 0,0.220914 -0.17909,0.4 -0.4,0.4 h -7.2 c -0.22091,0 -0.4,0.17909 -0.4,0.4 v 7.2 c 0,0.22091 -0.17909,0.4 -0.4,0.4 h -3.2 c -0.22091,0 -0.4,0.17909 -0.4,0.4 v 3.2 c 0,0.22091 0.17909,0.4 0.4,0.4 h 3.2 c 0.22091,0 0.4,0.17909 0.4,0.4 v 3.2 c 0,0.22091 -0.17909,0.4 -0.4,0.4 h -15.2 c -0.22091,0 -0.4,0.17909 -0.4,0.4 v 3.2 c 0,0.22091 -0.17909,0.4 -0.4,0.4 z m -40,0 h -7.2 c -0.220914,0 -0.4,-0.17909 -0.4,-0.4 v -3.2 c 0,-0.22091 0.179086,-0.4 0.4,-0.4 h 3.2 c 0.220914,0 0.4,-0.17909 0.4,-0.4 v -3.2 C 60,112.17909 59.820914,112 59.6,112 H 52 v -8 h 3.6 c 0.220914,0 0.4,-0.17909 0.4,-0.4 V 100 h 3.6 c 0.220914,0 0.4,-0.179086 0.4,-0.4 V 96.4 C 60,96.179086 60.179086,96 60.4,96 H 64 v 3.6 c 0,0.220914 0.179086,0.4 0.4,0.4 h 3.2 c 0.220914,0 0.4,0.17909 0.4,0.4 v 3.2 c 0,0.22091 -0.179086,0.4 -0.4,0.4 h -3.2 c -0.220914,0 -0.4,0.17909 -0.4,0.4 v 3.2 c 0,0.22091 0.179086,0.4 0.4,0.4 h 3.2 c 0.220914,0 0.4,0.17909 0.4,0.4 v 7.2 c 0,0.22091 -0.179086,0.4 -0.4,0.4 h -3.2 c -0.220914,0 -0.4,0.17909 -0.4,0.4 v 3.6 z m -12,0 h -3.2 c -0.220914,0 -0.4,-0.17909 -0.4,-0.4 v -7.2 c 0,-0.22091 0.179086,-0.4 0.4,-0.4 H 52 v 7.6 c 0,0.22091 -0.179086,0.4 -0.4,0.4 z m 60.4,-8.4 v -11.2 c 0,-0.22091 -0.17909,-0.4 -0.4,-0.4 h -11.2 c -0.22091,0 -0.4,0.17909 -0.4,0.4 v 11.2 c 0,0.22091 0.17909,0.4 0.4,0.4 h 11.2 c 0.22091,0 0.4,-0.17909 0.4,-0.4 z M 87.6,112 H 80 v -4 h 7.6 c 0.220914,0 0.4,0.17909 0.4,0.4 v 3.2 c 0,0.22091 -0.179086,0.4 -0.4,0.4 z m -12,0 h -3.2 c -0.220914,0 -0.4,-0.17909 -0.4,-0.4 v -3.2 c 0,-0.22091 0.179086,-0.4 0.4,-0.4 H 76 v 4 z m 32,-4 h -3.2 c -0.22091,0 -0.4,-0.17909 -0.4,-0.4 v -3.2 c 0,-0.22091 0.17909,-0.4 0.4,-0.4 h 3.2 c 0.22091,0 0.4,0.17909 0.4,0.4 v 3.2 c 0,0.22091 -0.17909,0.4 -0.4,0.4 z m -28,0 H 76 v -3.6 C 76,104.17909 75.820914,104 75.6,104 H 72.4 C 72.179086,104 72,103.82091 72,103.6 V 96 h 3.6 C 75.820914,96 76,95.820914 76,95.6 V 92.4 C 76,92.179086 75.820914,92 75.6,92 H 72.4 C 72.179086,92 72,92.179086 72,92.4 V 96 H 64 V 92.4 C 64,92.179086 63.820914,92 63.6,92 H 60.4 C 60.179086,92 60,91.820914 60,91.6 V 88.4 C 60,88.179086 60.179086,88 60.4,88 h 7.2 C 67.820914,88 68,87.820914 68,87.6 V 84.4 C 68,84.179086 67.820914,84 67.6,84 H 56 V 80.4 C 56,80.179086 55.820914,80 55.6,80 H 52.4 C 52.179086,80 52,79.820914 52,79.6 V 76 h 3.6 C 55.820914,76 56,75.820914 56,75.6 V 68.4 C 56,68.179086 55.820914,68 55.6,68 H 52 v -4 h 8 v 3.6 c 0,0.220914 0.179086,0.4 0.4,0.4 H 64 v 4 H 60.4 C 60.179086,72 60,72.179086 60,72.4 v 3.2 c 0,0.220914 0.179086,0.4 0.4,0.4 h 3.2 C 63.820914,76 64,75.820914 64,75.6 V 72 h 3.6 C 67.820914,72 68,71.820914 68,71.6 V 68 h 3.6 c 0.220914,0 0.4,0.179086 0.4,0.4 v 3.2 c 0,0.220914 0.179086,0.4 0.4,0.4 h 3.2 C 75.820914,72 76,71.820914 76,71.6 V 68.4 C 76,68.179086 76.179086,68 76.4,68 H 87.6 C 87.820914,68 88,67.820914 88,67.6 V 64.4 C 88,64.179086 87.820914,64 87.6,64 H 80.4 C 80.179086,64 80,63.820914 80,63.6 V 60.4 C 80,60.179086 79.820914,60 79.6,60 H 76 V 56.4 C 76,56.179086 75.820914,56 75.6,56 H 72.4 C 72.179086,56 72,56.179086 72,56.4 V 60 H 68 V 52.4 C 68,52.179086 68.179086,52 68.4,52 h 7.2 C 75.820914,52 76,51.820914 76,51.6 V 48.4 C 76,48.179086 76.179086,48 76.4,48 h 3.2 C 79.820914,48 80,47.820914 80,47.6 V 40.4 C 80,40.179086 80.179086,40 80.4,40 H 84 v 7.6 c 0,0.220914 0.179086,0.4 0.4,0.4 h 3.2 c 0.220914,0 0.4,0.179086 0.4,0.4 V 52 H 80.4 C 80.179086,52 80,52.179086 80,52.4 v 3.2 c 0,0.220914 0.179086,0.4 0.4,0.4 H 88 v 3.6 c 0,0.220914 0.179086,0.4 0.4,0.4 h 3.2 c 0.220914,0 0.4,0.179086 0.4,0.4 v 3.2 c 0,0.220914 0.179086,0.4 0.4,0.4 h 7.6 v 3.6 c 0,0.220914 -0.179086,0.4 -0.4,0.4 H 92.4 C 92.179086,68 92,68.179086 92,68.4 V 72 H 88.4 C 88.179086,72 88,72.179086 88,72.4 V 76 H 84.4 C 84.179086,76 84,75.820914 84,75.6 V 72.4 C 84,72.179086 83.820914,72 83.6,72 H 80.4 C 80.179086,72 80,72.179086 80,72.4 v 7.2 C 80,79.820914 79.820914,80 79.6,80 H 72 V 76.4 C 72,76.179086 71.820914,76 71.6,76 H 68.4 C 68.179086,76 68,76.179086 68,76.4 v 3.2 c 0,0.220914 0.179086,0.4 0.4,0.4 H 72 v 7.6 c 0,0.220914 0.179086,0.4 0.4,0.4 h 3.2 C 75.820914,88 76,87.820914 76,87.6 V 84.4 C 76,84.179086 76.179086,84 76.4,84 h 3.2 c 0.220914,0 0.4,0.179086 0.4,0.4 v 3.2 c 0,0.220914 0.179086,0.4 0.4,0.4 H 84 v 3.6 C 84,91.820914 83.820914,92 83.6,92 H 80.4 C 80.179086,92 80,92.179086 80,92.4 V 108 Z m 12,-4 H 84.4 C 84.179086,104 84,103.82091 84,103.6 V 96.4 C 84,96.179086 84.179086,96 84.4,96 h 3.2 c 0.220914,0 0.4,0.179086 0.4,0.4 v 3.2 c 0,0.220914 0.179086,0.4 0.4,0.4 h 3.2 c 0.220914,0 0.4,0.17909 0.4,0.4 v 3.6 z m -40,0 H 48.4 C 48.179086,104 48,103.82091 48,103.6 V 96.4 C 48,96.179086 48.179086,96 48.4,96 h 3.2 C 51.820914,96 52,95.820914 52,95.6 V 92.4 C 52,92.179086 51.820914,92 51.6,92 H 40.4 C 40.179086,92 40,91.820914 40,91.6 V 88 h 3.6 C 43.820914,88 44,87.820914 44,87.6 V 84.4 C 44,84.179086 43.820914,84 43.6,84 H 40.4 C 40.179086,84 40,84.179086 40,84.4 V 88 H 36.4 C 36.179086,88 36,87.820914 36,87.6 V 76 h 4 v 3.6 c 0,0.220914 0.179086,0.4 0.4,0.4 h 3.2 C 43.820914,80 44,79.820914 44,79.6 V 76 h 4 v 11.6 c 0,0.220914 0.179086,0.4 0.4,0.4 h 3.2 C 51.820914,88 52,87.820914 52,87.6 V 84.4 C 52,84.179086 52.179086,84 52.4,84 H 56 v 16 h -3.6 c -0.220914,0 -0.4,0.17909 -0.4,0.4 v 3.6 z m -8,-4 H 40.4 C 40.179086,100 40,99.820914 40,99.6 V 96.4 C 40,96.179086 40.179086,96 40.4,96 h 3.2 c 0.220914,0 0.4,0.179086 0.4,0.4 v 3.2 c 0,0.220914 -0.179086,0.4 -0.4,0.4 z m -16,0 H 16.4 C 16.179086,100 16,99.820914 16,99.6 V 84.4 C 16,84.179086 16.179086,84 16.4,84 h 3.2 C 19.820914,84 20,83.820914 20,83.6 V 80.4 C 20,80.179086 20.179086,80 20.4,80 h 3.2 C 23.820914,80 24,79.820914 24,79.6 V 72.4 C 24,72.179086 24.179086,72 24.4,72 h 3.2 C 27.820914,72 28,71.820914 28,71.6 V 64 h 4 v 3.6 c 0,0.220914 0.179086,0.4 0.4,0.4 H 40 v 4 H 36.4 C 36.179086,72 36,72.179086 36,72.4 V 76 H 32.4 C 32.179086,76 32,76.179086 32,76.4 v 3.2 C 32,79.820914 31.820914,80 31.6,80 H 28.4 C 28.179086,80 28,80.179086 28,80.4 v 3.2 C 28,83.820914 27.820914,84 27.6,84 H 24.4 C 24.179086,84 24,84.179086 24,84.4 v 7.2 c 0,0.220914 0.179086,0.4 0.4,0.4 h 11.2 c 0.220914,0 0.4,0.179086 0.4,0.4 v 3.2 C 36,95.820914 35.820914,96 35.6,96 H 28.4 C 28.179086,96 28,96.179086 28,96.4 v 3.2 c 0,0.220914 -0.179086,0.4 -0.4,0.4 z m 104,-8 h -3.2 C 128.17909,92 128,91.820914 128,91.6 V 88 h 3.6 c 0.22091,0 0.4,0.179086 0.4,0.4 v 3.2 c 0,0.220914 -0.17909,0.4 -0.4,0.4 z m -4,-4 H 120 v -4 h 7.6 c 0.22091,0 0.4,0.179086 0.4,0.4 V 88 Z m -8,-4 H 116 v -4 h 4 v 4 z m -68,-8 H 48 V 68.4 C 48,68.179086 48.179086,68 48.4,68 H 52 v 8 z m -8,0 H 40 v -4 h 3.6 c 0.220914,0 0.4,0.179086 0.4,0.4 V 76 Z m 24,-8 H 64 V 64.4 C 64,64.179086 63.820914,64 63.6,64 H 60 V 56.4 C 60,56.179086 59.820914,56 59.6,56 H 56 v -4 h 7.6 c 0.220914,0 0.4,0.179086 0.4,0.4 v 7.2 c 0,0.220914 0.179086,0.4 0.4,0.4 H 68 v 8 z m -24,0 H 40 V 64.4 C 40,64.179086 40.179086,64 40.4,64 h 3.2 c 0.220914,0 0.4,0.179086 0.4,0.4 v 3.2 c 0,0.220914 -0.179086,0.4 -0.4,0.4 z m -20,0 H 16.4 C 16.179086,68 16,67.820914 16,67.6 V 64.4 C 16,64.179086 16.179086,64 16.4,64 H 24 v 3.6 c 0,0.220914 -0.179086,0.4 -0.4,0.4 z m 96,-4 H 112 v -3.6 c 0,-0.220914 0.17909,-0.4 0.4,-0.4 h 7.6 v 3.6 c 0,0.220914 -0.17909,0.4 -0.4,0.4 z m -44,0 H 72.4 C 72.179086,64 72,63.820914 72,63.6 V 60 h 4 v 3.6 c 0,0.220914 -0.179086,0.4 -0.4,0.4 z m -24,0 H 48.4 C 48.179086,64 48,63.820914 48,63.6 V 60 h 4 v 4 z m -16,0 H 32 V 56.4 C 32,56.179086 32.179086,56 32.4,56 H 36 v 7.6 c 0,0.220914 -0.179086,0.4 -0.4,0.4 z m -8,0 H 24 v -8 h 3.6 c 0.220914,0 0.4,0.179086 0.4,0.4 V 64 Z m 96,-4 H 120 v -7.6 c 0,-0.220914 0.17909,-0.4 0.4,-0.4 h 7.6 v 3.6 c 0,0.220914 -0.17909,0.4 -0.4,0.4 h -3.2 c -0.22091,0 -0.4,0.179086 -0.4,0.4 v 3.2 c 0,0.220914 -0.17909,0.4 -0.4,0.4 z m -68,0 H 52 v -4 h 4 v 3.6 c 0,0.220914 -0.179086,0.4 -0.4,0.4 z m -8,0 H 40.4 C 40.179086,60 40,59.820914 40,59.6 V 56 h 3.6 C 43.820914,56 44,55.820914 44,55.6 V 52 h 8 v 4 H 48.4 C 48.179086,56 48,56.179086 48,56.4 V 60 Z m 68,-4 h -7.2 C 108.17909,56 108,55.820914 108,55.6 V 52 h 7.6 c 0.22091,0 0.4,0.179086 0.4,0.4 v 3.2 c 0,0.220914 -0.17909,0.4 -0.4,0.4 z m -12,0 h -3.2 c -0.22091,0 -0.4,-0.179086 -0.4,-0.4 v -3.2 c 0,-0.220914 0.17909,-0.4 0.4,-0.4 h 3.6 v 3.6 c 0,0.220914 -0.17909,0.4 -0.4,0.4 z m -8,0 H 88 v -4 h 3.6 C 91.820914,52 92,51.820914 92,51.6 V 44 h 4 v 11.6 c 0,0.220914 -0.179086,0.4 -0.4,0.4 z m -56,0 H 36 v -4 h 4 v 4 z m -16,0 H 16.4 C 16.179086,56 16,55.820914 16,55.6 V 48.4 C 16,48.179086 16.179086,48 16.4,48 h 7.2 c 0.220914,0 0.4,0.179086 0.4,0.4 V 56 Z m 108,-4 H 128 v -3.6 c 0,-0.220914 0.17909,-0.4 0.4,-0.4 h 3.2 c 0.22091,0 0.4,0.179086 0.4,0.4 v 3.2 c 0,0.220914 -0.17909,0.4 -0.4,0.4 z m -24,0 H 104 v -3.6 c 0,-0.220914 0.17909,-0.4 0.4,-0.4 h 3.2 c 0.22091,0 0.4,0.179086 0.4,0.4 V 52 Z m -52,0 H 52 V 48.4 C 52,48.179086 51.820914,48 51.6,48 H 48.4 C 48.179086,48 48,47.820914 48,47.6 V 40.4 C 48,40.179086 48.179086,40 48.4,40 H 52 v 3.6 c 0,0.220914 0.179086,0.4 0.4,0.4 H 56 v 8 z m -12,0 H 40 V 48.4 C 40,48.179086 40.179086,48 40.4,48 h 3.2 c 0.220914,0 0.4,0.179086 0.4,0.4 V 52 Z m -8,0 H 28.4 C 28.179086,52 28,51.820914 28,51.6 V 48.4 C 28,48.179086 28.179086,48 28.4,48 h 7.2 c 0.220914,0 0.4,0.179086 0.4,0.4 V 52 Z m 36,-4 H 68.4 C 68.179086,48 68,47.820914 68,47.6 V 44 h 4 v 3.6 c 0,0.220914 -0.179086,0.4 -0.4,0.4 z m 60,-4 H 104.4 C 104.17909,44 104,43.820914 104,43.6 V 16.4 c 0,-0.220914 0.17909,-0.4 0.4,-0.4 h 27.2 c 0.22091,0 0.4,0.179086 0.4,0.4 v 27.2 c 0,0.220914 -0.17909,0.4 -0.4,0.4 z m -32,0 H 96 V 40.4 C 96,40.179086 96.179086,40 96.4,40 h 3.2 c 0.220914,0 0.4,0.179086 0.4,0.4 v 3.2 c 0,0.220914 -0.179086,0.4 -0.4,0.4 z m -8,0 H 88.4 C 88.179086,44 88,43.820914 88,43.6 V 40 h 3.6 c 0.220914,0 0.4,0.179086 0.4,0.4 V 44 Z m -16,0 H 72 V 40.4 C 72,40.179086 71.820914,40 71.6,40 H 68.4 C 68.179086,40 68,40.179086 68,40.4 V 44 H 64.4 C 64.179086,44 64,43.820914 64,43.6 V 40.4 C 64,40.179086 63.820914,40 63.6,40 H 60 V 36.4 C 60,36.179086 60.179086,36 60.4,36 h 7.2 C 67.820914,36 68,35.820914 68,35.6 V 28.4 C 68,28.179086 67.820914,28 67.6,28 H 60 v -4 h 7.6 C 67.820914,24 68,23.820914 68,23.6 V 20.4 C 68,20.179086 67.820914,20 67.6,20 H 64.4 C 64.179086,20 64,19.820914 64,19.6 V 16.4 C 64,16.179086 64.179086,16 64.4,16 h 7.2 c 0.220914,0 0.4,0.179086 0.4,0.4 v 15.2 c 0,0.220914 0.179086,0.4 0.4,0.4 h 3.2 c 0.220914,0 0.4,0.179086 0.4,0.4 v 11.2 c 0,0.220914 -0.179086,0.4 -0.4,0.4 z m -16,0 H 56 v -4 h 4 v 3.6 c 0,0.220914 -0.179086,0.4 -0.4,0.4 z m -16,0 H 16.4 C 16.179086,44 16,43.820914 16,43.6 V 16.4 C 16,16.179086 16.179086,16 16.4,16 h 27.2 c 0.220914,0 0.4,0.179086 0.4,0.4 V 43.6 C 44,43.820914 43.820914,44 43.6,44 Z M 128,39.6 V 20.4 c 0,-0.220914 -0.17909,-0.4 -0.4,-0.4 h -19.2 c -0.22091,0 -0.4,0.179086 -0.4,0.4 v 19.2 c 0,0.220914 0.17909,0.4 0.4,0.4 h 19.2 c 0.22091,0 0.4,-0.179086 0.4,-0.4 z M 87.6,40 H 84 V 36.4 C 84,36.179086 83.820914,36 83.6,36 H 80.4 C 80.179086,36 80,35.820914 80,35.6 V 20.4 C 80,20.179086 80.179086,20 80.4,20 h 3.2 C 83.820914,20 84,19.820914 84,19.6 V 16.4 C 84,16.179086 84.179086,16 84.4,16 h 3.2 c 0.220914,0 0.4,0.179086 0.4,0.4 v 3.2 c 0,0.220914 0.179086,0.4 0.4,0.4 h 7.2 c 0.220914,0 0.4,0.179086 0.4,0.4 V 28 H 88 V 24.4 C 88,24.179086 87.820914,24 87.6,24 H 84.4 C 84.179086,24 84,24.179086 84,24.4 v 3.2 c 0,0.220914 0.179086,0.4 0.4,0.4 H 88 v 3.6 c 0,0.220914 0.179086,0.4 0.4,0.4 H 96 v 3.6 C 96,35.820914 95.820914,36 95.6,36 H 88.4 C 88.179086,36 88,36.179086 88,36.4 V 40 Z m -32,0 H 52 V 36.4 C 52,36.179086 52.179086,36 52.4,36 h 3.2 c 0.220914,0 0.4,0.179086 0.4,0.4 V 40 Z M 40,39.6 V 20.4 C 40,20.179086 39.820914,20 39.6,20 H 20.4 C 20.179086,20 20,20.179086 20,20.4 v 19.2 c 0,0.220914 0.179086,0.4 0.4,0.4 H 39.6 C 39.820914,40 40,39.820914 40,39.6 Z M 123.6,36 H 112.4 C 112.17909,36 112,35.820914 112,35.6 V 24.4 c 0,-0.220914 0.17909,-0.4 0.4,-0.4 h 11.2 c 0.22091,0 0.4,0.179086 0.4,0.4 v 11.2 c 0,0.220914 -0.17909,0.4 -0.4,0.4 z m -88,0 H 24.4 C 24.179086,36 24,35.820914 24,35.6 V 24.4 C 24,24.179086 24.179086,24 24.4,24 h 11.2 c 0.220914,0 0.4,0.179086 0.4,0.4 v 11.2 c 0,0.220914 -0.179086,0.4 -0.4,0.4 z m 64,-4 H 96 v -4 h 3.6 c 0.220914,0 0.4,0.179086 0.4,0.4 v 3.2 c 0,0.220914 -0.179086,0.4 -0.4,0.4 z m -40,0 H 56.4 C 56.179086,32 56,31.820914 56,31.6 V 28 h 4 v 3.6 c 0,0.220914 -0.179086,0.4 -0.4,0.4 z m -4,-4 H 52.4 C 52.179086,28 52,27.820914 52,27.6 V 20 h 3.6 C 55.820914,20 56,19.820914 56,19.6 V 16.4 C 56,16.179086 56.179086,16 56.4,16 h 3.2 c 0.220914,0 0.4,0.179086 0.4,0.4 V 24 H 56.4 C 56.179086,24 56,24.179086 56,24.4 V 28 Z m -4,-8 H 48.4 C 48.179086,20 48,19.820914 48,19.6 V 16.4 C 48,16.179086 48.179086,16 48.4,16 h 3.2 c 0.220914,0 0.4,0.179086 0.4,0.4 V 20 Z"
           id="path140" />
      </g>
    </g>
  </g>
</svg>
