<?xml version="1.0" encoding="UTF-8" standalone="no"?>
<!-- Created with Inkscape (http://www.inkscape.org/) -->

<svg
   width="34.924957mm"
   height="34.924957mm"
   viewBox="0 0 34.924957 34.924957"
   version="1.1"
   id="svg5"
   xmlns="http://www.w3.org/2000/svg"
   xmlns:svg="http://www.w3.org/2000/svg">
  <defs
     id="defs2" />
  <g
     id="layer1"
     transform="translate(-105.216,-148.671)">
    <g
       transform="matrix(0.264583,0,0,0.264583,105.216,148.671)"
       id="g144">
      <rect
         x="0"
         y="0"
         width="132"
         height="132"
         style="fill:#ffffff;stroke:none"
         id="rect138" />
      <g
         style="fill:#000000;stroke:none"
         id="g142">
        <path
           d="m 115.6,116 h -3.2 c -0.22091,0 -0.4,-0.17909 -0.4,-0.4 v -11.2 c 0,-0.22091 -0.17909,-0.4 -0.4,-0.4 H 108 v -3.6 c 0,-0.22091 -0.17909,-0.4 -0.4,-0.4 h -3.2 c -0.22091,0 -0.4,-0.179086 -0.4,-0.4 v -3.2 c 0,-0.220914 0.17909,-0.4 0.4,-0.4 h 7.6 v 3.6 c 0,0.220914 0.17909,0.4 0.4,0.4 h 3.2 c 0.22091,0 0.4,0.17909 0.4,0.4 v 15.2 c 0,0.22091 -0.17909,0.4 -0.4,0.4 z m -12,0 h -3.2 c -0.22091,0 -0.4,-0.17909 -0.4,-0.4 V 112 h 3.6 c 0.22091,0 0.4,0.17909 0.4,0.4 v 3.2 c 0,0.22091 -0.17909,0.4 -0.4,0.4 z m -20,0 h -3.2 c -0.220914,0 -0.4,-0.17909 -0.4,-0.4 v -3.2 c 0,-0.22091 -0.179086,-0.4 -0.4,-0.4 h -7.2 c -0.220914,0 -0.4,-0.17909 -0.4,-0.4 v -7.2 c 0,-0.22091 0.179086,-0.4 0.4,-0.4 H 76 v 3.6 c 0,0.22091 0.179086,0.4 0.4,0.4 H 100 v 4 H 84.4 c -0.220914,0 -0.4,0.17909 -0.4,0.4 v 3.2 c 0,0.22091 -0.179086,0.4 -0.4,0.4 z m -16,0 H 56.4 c -0.220914,0 -0.4,-0.17909 -0.4,-0.4 v -3.2 c 0,-0.22091 0.179086,-0.4 0.4,-0.4 h 3.2 c 0.220914,0 0.4,-0.17909 0.4,-0.4 V 108 h 3.6 c 0.220914,0 0.4,-0.17909 0.4,-0.4 v -3.2 C 64,104.17909 63.820914,104 63.6,104 H 60 v -3.6 C 60,100.17909 59.820914,100 59.6,100 H 52.4 C 52.179086,100 52,99.820914 52,99.6 V 96.4 C 52,96.179086 51.820914,96 51.6,96 H 48.4 C 48.179086,96 48,95.820914 48,95.6 V 80 h 3.6 c 0.220914,0 0.4,0.179086 0.4,0.4 v 3.2 c 0,0.220914 0.179086,0.4 0.4,0.4 h 3.2 C 55.820914,84 56,83.820914 56,83.6 V 80.4 C 56,80.179086 56.179086,80 56.4,80 h 7.2 C 63.820914,80 64,79.820914 64,79.6 V 76.4 C 64,76.179086 64.179086,76 64.4,76 h 3.2 c 0.220914,0 0.4,0.179086 0.4,0.4 v 3.2 c 0,0.220914 0.179086,0.4 0.4,0.4 h 3.2 C 71.820914,80 72,79.820914 72,79.6 V 68.4 C 72,68.179086 72.179086,68 72.4,68 h 3.2 C 75.820914,68 76,67.820914 76,67.6 V 64.4 C 76,64.179086 75.820914,64 75.6,64 H 72.4 C 72.179086,64 72,63.820914 72,63.6 V 60.4 C 72,60.179086 72.179086,60 72.4,60 h 3.2 C 75.820914,60 76,59.820914 76,59.6 V 56.4 C 76,56.179086 75.820914,56 75.6,56 H 56 V 52.4 C 56,52.179086 55.820914,52 55.6,52 H 52.4 C 52.179086,52 52,51.820914 52,51.6 V 44 h 4 v 3.6 c 0,0.220914 0.179086,0.4 0.4,0.4 h 3.2 C 59.820914,48 60,47.820914 60,47.6 V 44 h 4 v 3.6 c 0,0.220914 0.179086,0.4 0.4,0.4 h 7.2 C 71.820914,48 72,47.820914 72,47.6 V 40.4 C 72,40.179086 71.820914,40 71.6,40 H 68 v -4 h 7.6 c 0.220914,0 0.4,0.179086 0.4,0.4 v 7.2 c 0,0.220914 0.179086,0.4 0.4,0.4 H 80 v 3.6 c 0,0.220914 0.179086,0.4 0.4,0.4 h 3.2 c 0.220914,0 0.4,0.179086 0.4,0.4 v 3.2 C 84,51.820914 83.820914,52 83.6,52 H 80.4 C 80.179086,52 80,52.179086 80,52.4 v 15.2 c 0,0.220914 0.179086,0.4 0.4,0.4 H 88 v 3.6 c 0,0.220914 0.179086,0.4 0.4,0.4 h 3.2 C 91.820914,72 92,71.820914 92,71.6 V 68.4 C 92,68.179086 91.820914,68 91.6,68 H 88 V 64.4 C 88,64.179086 87.820914,64 87.6,64 H 84.4 C 84.179086,64 84,63.820914 84,63.6 V 60.4 C 84,60.179086 84.179086,60 84.4,60 h 3.2 C 87.820914,60 88,59.820914 88,59.6 V 56.4 C 88,56.179086 88.179086,56 88.4,56 H 92 v 7.6 c 0,0.220914 0.179086,0.4 0.4,0.4 H 96 v 7.6 c 0,0.220914 0.179086,0.4 0.4,0.4 h 7.2 c 0.22091,0 0.4,0.179086 0.4,0.4 v 3.2 c 0,0.220914 0.17909,0.4 0.4,0.4 h 3.6 v 7.6 c 0,0.220914 -0.17909,0.4 -0.4,0.4 h -3.2 C 104.17909,84 104,83.820914 104,83.6 V 80.4 C 104,80.179086 103.82091,80 103.6,80 H 100 V 76.4 C 100,76.179086 99.820914,76 99.6,76 H 96.4 C 96.179086,76 96,76.179086 96,76.4 v 3.2 c 0,0.220914 0.179086,0.4 0.4,0.4 h 3.6 v 19.6 c 0,0.220914 -0.179086,0.4 -0.4,0.4 h -7.2 c -0.220914,0 -0.4,0.17909 -0.4,0.4 v 3.2 c 0,0.22091 -0.179086,0.4 -0.4,0.4 H 76 v -3.6 c 0,-0.22091 -0.179086,-0.4 -0.4,-0.4 h -7.2 c -0.220914,0 -0.4,0.17909 -0.4,0.4 v 15.2 c 0,0.22091 -0.179086,0.4 -0.4,0.4 z m -16,0 h -3.2 c -0.220914,0 -0.4,-0.17909 -0.4,-0.4 v -7.2 c 0,-0.22091 0.179086,-0.4 0.4,-0.4 h 3.2 c 0.220914,0 0.4,0.17909 0.4,0.4 v 7.2 c 0,0.22091 -0.179086,0.4 -0.4,0.4 z m -8,0 H 16.4 C 16.179086,116 16,115.82091 16,115.6 V 88.4 C 16,88.179086 16.179086,88 16.4,88 h 27.2 c 0.220914,0 0.4,0.179086 0.4,0.4 v 27.2 c 0,0.22091 -0.179086,0.4 -0.4,0.4 z M 40,111.6 V 92.4 C 40,92.179086 39.820914,92 39.6,92 H 20.4 C 20.179086,92 20,92.179086 20,92.4 v 19.2 c 0,0.22091 0.179086,0.4 0.4,0.4 h 19.2 c 0.220914,0 0.4,-0.17909 0.4,-0.4 z M 107.6,108 H 100 v -3.6 c 0,-0.22091 0.17909,-0.4 0.4,-0.4 h 7.6 v 3.6 c 0,0.22091 -0.17909,0.4 -0.4,0.4 z m -48,0 h -3.2 c -0.220914,0 -0.4,-0.17909 -0.4,-0.4 v -3.2 c 0,-0.22091 0.179086,-0.4 0.4,-0.4 H 60 v 4 z m -24,0 H 24.4 C 24.179086,108 24,107.82091 24,107.6 V 96.4 C 24,96.179086 24.179086,96 24.4,96 h 11.2 c 0.220914,0 0.4,0.179086 0.4,0.4 v 11.2 c 0,0.22091 -0.179086,0.4 -0.4,0.4 z m 80,-12 H 112 v -7.6 c 0,-0.220914 0.17909,-0.4 0.4,-0.4 h 3.2 c 0.22091,0 0.4,0.179086 0.4,0.4 v 7.2 c 0,0.220914 -0.17909,0.4 -0.4,0.4 z M 96,95.6 V 84.4 C 96,84.179086 95.820914,84 95.6,84 H 84.4 C 84.179086,84 84,84.179086 84,84.4 v 11.2 c 0,0.220914 0.179086,0.4 0.4,0.4 h 11.2 c 0.220914,0 0.4,-0.179086 0.4,-0.4 z m -20,0 V 92 h 3.6 C 79.820914,92 80,91.820914 80,91.6 V 84.4 C 80,84.179086 79.820914,84 79.6,84 H 72.4 C 72.179086,84 72,84.179086 72,84.4 v 3.2 c 0,0.220914 0.179086,0.4 0.4,0.4 h 3.2 c 0.220914,0 0.4,0.179086 0.4,0.4 V 92 H 64.4 C 64.179086,92 64,92.179086 64,92.4 v 3.2 c 0,0.220914 0.179086,0.4 0.4,0.4 h 11.2 c 0.220914,0 0.4,-0.179086 0.4,-0.4 z m -16,0 V 92.4 C 60,92.179086 59.820914,92 59.6,92 H 56.4 C 56.179086,92 56,92.179086 56,92.4 v 3.2 c 0,0.220914 0.179086,0.4 0.4,0.4 h 3.2 C 59.820914,96 60,95.820914 60,95.6 Z M 91.6,92 H 88.4 C 88.179086,92 88,91.820914 88,91.6 V 88.4 C 88,88.179086 88.179086,88 88.4,88 h 3.2 c 0.220914,0 0.4,0.179086 0.4,0.4 v 3.2 C 92,91.820914 91.820914,92 91.6,92 Z M 68,87.6 V 84.4 C 68,84.179086 67.820914,84 67.6,84 H 64.4 C 64.179086,84 64,84.179086 64,84.4 v 3.2 c 0,0.220914 0.179086,0.4 0.4,0.4 h 3.2 C 67.820914,88 68,87.820914 68,87.6 Z M 43.6,84 H 28.4 C 28.179086,84 28,83.820914 28,83.6 V 80.4 C 28,80.179086 28.179086,80 28.4,80 h 3.2 C 31.820914,80 32,79.820914 32,79.6 V 76.4 C 32,76.179086 32.179086,76 32.4,76 H 36 v 3.6 c 0,0.220914 0.179086,0.4 0.4,0.4 H 44 v 3.6 c 0,0.220914 -0.179086,0.4 -0.4,0.4 z m -24,0 H 16.4 C 16.179086,84 16,83.820914 16,83.6 V 60.4 C 16,60.179086 16.179086,60 16.4,60 h 3.2 c 0.220914,0 0.4,0.179086 0.4,0.4 v 3.2 c 0,0.220914 0.179086,0.4 0.4,0.4 h 3.2 C 23.820914,64 24,63.820914 24,63.6 V 56 h 4 v 7.6 c 0,0.220914 0.179086,0.4 0.4,0.4 H 32 v 3.6 c 0,0.220914 0.179086,0.4 0.4,0.4 h 3.2 c 0.220914,0 0.4,0.179086 0.4,0.4 V 72 H 28 V 68.4 C 28,68.179086 27.820914,68 27.6,68 H 20.4 C 20.179086,68 20,68.179086 20,68.4 v 15.2 c 0,0.220914 -0.179086,0.4 -0.4,0.4 z m 96,-4 h -3.2 C 112.17909,80 112,79.820914 112,79.6 V 76.4 C 112,76.179086 111.82091,76 111.6,76 H 108 v -7.6 c 0,-0.220914 0.17909,-0.4 0.4,-0.4 h 3.6 v 3.6 c 0,0.220914 0.17909,0.4 0.4,0.4 h 3.2 c 0.22091,0 0.4,0.179086 0.4,0.4 v 7.2 c 0,0.220914 -0.17909,0.4 -0.4,0.4 z M 92,79.6 V 76.4 C 92,76.179086 91.820914,76 91.6,76 H 76.4 C 76.179086,76 76,76.179086 76,76.4 v 3.2 c 0,0.220914 0.179086,0.4 0.4,0.4 H 91.6 C 91.820914,80 92,79.820914 92,79.6 Z M 47.6,80 H 44 v -4 h 3.6 c 0.220914,0 0.4,0.179086 0.4,0.4 V 80 Z m -4,-4 H 36 v -4 h 7.6 c 0.220914,0 0.4,0.179086 0.4,0.4 V 76 Z m -16,0 H 24.4 C 24.179086,76 24,75.820914 24,75.6 V 72.4 C 24,72.179086 24.179086,72 24.4,72 H 28 v 3.6 c 0,0.220914 -0.179086,0.4 -0.4,0.4 z m 36,-4 H 56.4 C 56.179086,72 56,71.820914 56,71.6 V 68.4 C 56,68.179086 55.820914,68 55.6,68 H 52.4 C 52.179086,68 52,68.179086 52,68.4 v 3.2 C 52,71.820914 51.820914,72 51.6,72 H 48.4 C 48.179086,72 48,71.820914 48,71.6 V 64.4 C 48,64.179086 47.820914,64 47.6,64 H 44 v -4 h 8 v 3.6 c 0,0.220914 0.179086,0.4 0.4,0.4 h 3.2 C 55.820914,64 56,63.820914 56,63.6 V 60 h 7.6 c 0.220914,0 0.4,0.179086 0.4,0.4 V 64 H 60.4 C 60.179086,64 60,64.179086 60,64.4 v 3.2 c 0,0.220914 0.179086,0.4 0.4,0.4 H 64 v 3.6 c 0,0.220914 -0.179086,0.4 -0.4,0.4 z m 52,-4 H 112 v -7.6 c 0,-0.220914 -0.17909,-0.4 -0.4,-0.4 h -3.2 c -0.22091,0 -0.4,-0.179086 -0.4,-0.4 v -3.2 c 0,-0.220914 -0.17909,-0.4 -0.4,-0.4 h -3.2 c -0.22091,0 -0.4,0.179086 -0.4,0.4 v 7.2 c 0,0.220914 -0.17909,0.4 -0.4,0.4 H 96 V 56.4 C 96,56.179086 95.820914,56 95.6,56 H 92 V 52.4 C 92,52.179086 92.179086,52 92.4,52 h 3.2 C 95.820914,52 96,51.820914 96,51.6 V 48.4 C 96,48.179086 96.179086,48 96.4,48 h 7.2 c 0.22091,0 0.4,0.179086 0.4,0.4 v 3.2 c 0,0.220914 0.17909,0.4 0.4,0.4 h 7.2 c 0.22091,0 0.4,0.179086 0.4,0.4 v 3.2 c 0,0.220914 0.17909,0.4 0.4,0.4 h 3.2 c 0.22091,0 0.4,0.179086 0.4,0.4 v 11.2 c 0,0.220914 -0.17909,0.4 -0.4,0.4 z m -48,0 H 64 v -4 h 3.6 c 0.220914,0 0.4,0.179086 0.4,0.4 v 3.2 c 0,0.220914 -0.179086,0.4 -0.4,0.4 z m -24,0 H 40.4 C 40.179086,68 40,67.820914 40,67.6 V 64 h 4 v 3.6 c 0,0.220914 -0.179086,0.4 -0.4,0.4 z m -4,-4 H 32 V 60.4 C 32,60.179086 32.179086,60 32.4,60 h 3.2 C 35.820914,60 36,59.820914 36,59.6 V 56 h 8 v 4 H 40.4 C 40.179086,60 40,60.179086 40,60.4 V 64 Z m 16,-4 H 52 V 56.4 C 52,56.179086 52.179086,56 52.4,56 H 56 v 4 z m -8,-4 H 44 V 52.4 C 44,52.179086 43.820914,52 43.6,52 H 36 V 48.4 C 36,48.179086 36.179086,48 36.4,48 h 11.2 c 0.220914,0 0.4,0.179086 0.4,0.4 v 7.2 c 0,0.220914 -0.179086,0.4 -0.4,0.4 z m -12,0 H 28 V 52.4 C 28,52.179086 28.179086,52 28.4,52 H 36 v 4 z m -12,0 H 16.4 C 16.179086,56 16,55.820914 16,55.6 V 48.4 C 16,48.179086 16.179086,48 16.4,48 h 7.2 c 0.220914,0 0.4,0.179086 0.4,0.4 V 56 Z m 92,-12 H 88.4 C 88.179086,44 88,43.820914 88,43.6 V 16.4 C 88,16.179086 88.179086,16 88.4,16 h 27.2 c 0.22091,0 0.4,0.179086 0.4,0.4 v 27.2 c 0,0.220914 -0.17909,0.4 -0.4,0.4 z m -32,0 H 80 V 40.4 C 80,40.179086 80.179086,40 80.4,40 h 3.2 c 0.220914,0 0.4,0.179086 0.4,0.4 v 3.2 c 0,0.220914 -0.179086,0.4 -0.4,0.4 z m -16,0 H 64 V 40.4 C 64,40.179086 64.179086,40 64.4,40 H 68 v 3.6 c 0,0.220914 -0.179086,0.4 -0.4,0.4 z m -8,0 H 56 V 40.4 C 56,40.179086 55.820914,40 55.6,40 H 52 v -4 h 3.6 C 55.820914,36 56,35.820914 56,35.6 V 28.4 C 56,28.179086 55.820914,28 55.6,28 H 52 V 24.4 C 52,24.179086 52.179086,24 52.4,24 h 7.2 C 59.820914,24 60,23.820914 60,23.6 V 20.4 C 60,20.179086 59.820914,20 59.6,20 H 52.4 C 52.179086,20 52,19.820914 52,19.6 V 16.4 C 52,16.179086 52.179086,16 52.4,16 h 11.2 c 0.220914,0 0.4,0.179086 0.4,0.4 v 3.2 c 0,0.220914 0.179086,0.4 0.4,0.4 h 7.2 C 71.820914,20 72,19.820914 72,19.6 V 16.4 C 72,16.179086 72.179086,16 72.4,16 h 3.2 c 0.220914,0 0.4,0.179086 0.4,0.4 V 24 H 64.4 C 64.179086,24 64,24.179086 64,24.4 v 3.2 c 0,0.220914 0.179086,0.4 0.4,0.4 h 7.2 c 0.220914,0 0.4,0.179086 0.4,0.4 v 3.2 C 72,31.820914 71.820914,32 71.6,32 H 68.4 C 68.179086,32 68,32.179086 68,32.4 V 36 H 64.4 C 64.179086,36 64,35.820914 64,35.6 V 32.4 C 64,32.179086 63.820914,32 63.6,32 H 60.4 C 60.179086,32 60,32.179086 60,32.4 V 44 Z m -8,0 H 48.4 C 48.179086,44 48,43.820914 48,43.6 V 40.4 C 48,40.179086 48.179086,40 48.4,40 H 52 v 4 z m -8,0 H 16.4 C 16.179086,44 16,43.820914 16,43.6 V 16.4 C 16,16.179086 16.179086,16 16.4,16 h 27.2 c 0.220914,0 0.4,0.179086 0.4,0.4 V 43.6 C 44,43.820914 43.820914,44 43.6,44 Z M 112,39.6 V 20.4 C 112,20.179086 111.82091,20 111.6,20 H 92.4 C 92.179086,20 92,20.179086 92,20.4 v 19.2 c 0,0.220914 0.179086,0.4 0.4,0.4 h 19.2 c 0.22091,0 0.4,-0.179086 0.4,-0.4 z m -72,0 V 20.4 C 40,20.179086 39.820914,20 39.6,20 H 20.4 C 20.179086,20 20,20.179086 20,20.4 v 19.2 c 0,0.220914 0.179086,0.4 0.4,0.4 H 39.6 C 39.820914,40 40,39.820914 40,39.6 Z M 107.6,36 H 96.4 C 96.179086,36 96,35.820914 96,35.6 V 24.4 C 96,24.179086 96.179086,24 96.4,24 h 11.2 c 0.22091,0 0.4,0.179086 0.4,0.4 v 11.2 c 0,0.220914 -0.17909,0.4 -0.4,0.4 z m -24,0 H 80.4 C 80.179086,36 80,35.820914 80,35.6 V 28 h 3.6 c 0.220914,0 0.4,0.179086 0.4,0.4 v 7.2 c 0,0.220914 -0.179086,0.4 -0.4,0.4 z m -32,0 H 48.4 C 48.179086,36 48,35.820914 48,35.6 V 28.4 C 48,28.179086 48.179086,28 48.4,28 H 52 v 8 z m -16,0 H 24.4 C 24.179086,36 24,35.820914 24,35.6 V 24.4 C 24,24.179086 24.179086,24 24.4,24 h 11.2 c 0.220914,0 0.4,0.179086 0.4,0.4 v 11.2 c 0,0.220914 -0.179086,0.4 -0.4,0.4 z m 44,-8 H 76.4 C 76.179086,28 76,27.820914 76,27.6 V 24 h 4 v 4 z m 4,-4 H 80 V 16.4 C 80,16.179086 80.179086,16 80.4,16 h 3.2 c 0.220914,0 0.4,0.179086 0.4,0.4 v 7.2 c 0,0.220914 -0.179086,0.4 -0.4,0.4 z"
           id="path140" />
      </g>
    </g>
  </g>
</svg>
